{"asset":{"generator":"Khronos glTF Spline I/O v0.0.1","version":"2.0"},"scenes":[{"nodes":[0]}],"nodes":[{"name":"","children":[1,2,3,4,5,6]},{"name":"Directional Light","translation":[177.9264875665775,308.68383090019904,73],"rotation":[-0.6106886956755166,0.16340112231162587,-0.20027460439912814,0.7484981449771335],"extensions":{"KHR_lights_punctual":{"light":0}}},{"name":"Cone 2","matrix":[-1.1135053855414736,1.3270240435921854,-16.481798809014787,0,-0.9033895864929771,1.0766177852152008,0.1477160888051809,0,1.0934829262214372,0.9175411200910617,7.606931525482644e-15,0,-3.6191408757702868,110.68699623750429,36.67152333605999,1],"mesh":0},{"name":"Cone","matrix":[0.9664895507375001,1.0733953905009157,-16.509521474613408,0,0.9419944749227064,1.0461908527491115,0.1231655477669129,0,1.0607950826726769,-0.955144182609739,-1.172735276845241e-14,0,62.62850128150624,110.27701936611392,37.14334284229202,1],"mesh":1},{"name":"Sphere 2","matrix":[0.008385939853690074,-0.44049723875129043,-0.8977147980652096,0,-0.0048528894111346255,1.2256420250719078,-0.6014522930268253,0,1.2355171107287888,0.008507211994432513,0.0073671157031286105,0,28.949197833277932,58.746870413499856,53.88880284647915,1],"mesh":2},{"name":"Lathe","matrix":[1,0,0,0,0,1,0,0,0,0,1,0,29,65.63286276324516,29.818899463029084,1],"mesh":3},{"name":"Personal Camera","camera":0,"translation":[-5.490365024787019,52.42303413996967,403.29537680983464],"rotation":[0.03513459122463604,-0.022328952090172886,0.0007852100451453566,0.999132804907945]}],"cameras":[{"type":"orthographic","orthographic":{"xmag":2560,"ymag":1232,"zfar":100000,"znear":0}}],"meshes":[{"primitives":[{"attributes":{"POSITION":1,"NORMAL":2},"indices":0}]},{"primitives":[{"attributes":{"POSITION":4,"NORMAL":5},"indices":3}]},{"primitives":[{"attributes":{"POSITION":7,"NORMAL":8,"TEXCOORD_0":9},"indices":6}]},{"primitives":[{"attributes":{"POSITION":11,"TEXCOORD_0":12,"NORMAL":13},"indices":10}]}],"buffers":[{"uri":"data:application/octet-stream;base64,","byteLength":65280},{"uri":"data:application/octet-stream;base64,","byteLength":65280},{"uri":"data:application/octet-stream;base64,","byteLength":183584},{"uri":"data:application/octet-stream;base64,","byteLength":184352}],"bufferViews":[{"buffer":0,"byteOffset":0,"byteLength":13056,"target":34963},{"buffer":0,"byteOffset":13056,"byteLength":26112,"target":34962},{"buffer":0,"byteOffset":39168,"byteLength":26112,"target":34962},{"buffer":1,"byteOffset":0,"byteLength":13056,"target":34963},{"buffer":1,"byteOffset":13056,"byteLength":26112,"target":34962},{"buffer":1,"byteOffset":39168,"byteLength":26112,"target":34962},{"buffer":2,"byteOffset":0,"byteLength":48384,"target":34963},{"buffer":2,"byteOffset":48384,"byteLength":50700,"target":34962},{"buffer":2,"byteOffset":99084,"byteLength":50700,"target":34962},{"buffer":2,"byteOffset":149784,"byteLength":33800,"target":34962},{"buffer":3,"byteOffset":0,"byteLength":49152,"target":34963},{"buffer":3,"byteOffset":49152,"byteLength":50700,"target":34962},{"buffer":3,"byteOffset":99852,"byteLength":33800,"target":34962},{"buffer":3,"byteOffset":133652,"byteLength":50700,"target":34962}],"accessors":[{"bufferView":0,"byteOffset":0,"componentType":5125,"count":3264,"type":"SCALAR","min":[0],"max":[2175]},{"bufferView":1,"byteOffset":0,"componentType":5126,"count":2176,"type":"VEC3","min":[-0.4598296284675598,-7.000000476837158,-5.517955780029297],"max":[0.4598296284675598,4.207408905029297,5.517955780029297]},{"bufferView":2,"byteOffset":0,"componentType":5126,"count":2176,"type":"VEC3","min":[-1,-1,-0.9979689121246338],"max":[1,0.9958987832069397,0.9979689121246338]},{"bufferView":3,"byteOffset":0,"componentType":5125,"count":3264,"type":"SCALAR","min":[0],"max":[2175]},{"bufferView":4,"byteOffset":0,"componentType":5126,"count":2176,"type":"VEC3","min":[-0.4598296284675598,-7.000000476837158,-5.517955780029297],"max":[0.4598296284675598,4.207408905029297,5.517955780029297]},{"bufferView":5,"byteOffset":0,"componentType":5126,"count":2176,"type":"VEC3","min":[-1,-1,-0.9979689121246338],"max":[1,0.9958987832069397,0.9979689121246338]},{"bufferView":6,"byteOffset":0,"componentType":5123,"count":24192,"type":"SCALAR","min":[0],"max":[4224]},{"bufferView":7,"byteOffset":0,"componentType":5126,"count":4225,"type":"VEC3","min":[-22.5,-19.5,-23.5],"max":[22.5,19.5,23.5]},{"bufferView":8,"byteOffset":0,"componentType":5126,"count":4225,"type":"VEC3","min":[-1,-1,-1],"max":[1,1,1]},{"bufferView":9,"byteOffset":0,"componentType":5126,"count":4225,"type":"VEC2","min":[-0.0078125,0],"max":[1.0078125,1]},{"bufferView":10,"byteOffset":0,"componentType":5123,"count":24576,"type":"SCALAR","min":[0],"max":[4224]},{"bufferView":11,"byteOffset":0,"componentType":5126,"count":4225,"type":"VEC3","min":[-38.645816802978516,-43.71875,-38.645816802978516],"max":[38.645816802978516,47.28125,38.645816802978516]},{"bufferView":12,"byteOffset":0,"componentType":5126,"count":4225,"type":"VEC2","min":[0,0],"max":[1,1]},{"bufferView":13,"byteOffset":0,"componentType":5126,"count":4225,"type":"VEC3","min":[-0.9999638795852661,-0.9981627464294434,-0.9999638795852661],"max":[0.9999638795852661,0.982613742351532,0.9999638795852661]}],"extensions":{"KHR_lights_punctual":{"lights":[{"type":"directional","name":"Directional Light","color":[1,1,1],"intensity":1.7}]}},"extensionsUsed":["KHR_lights_punctual"]}