<svg width="256" height="264" viewBox="0 0 256 264" fill="none" xmlns="http://www.w3.org/2000/svg">
<path d="M247 165.156C247 219.746 193.05 264 126.5 264C59.9497 264 6 219.746 6 165.156C6 110.566 59.9497 28 126.5 28C193.05 28 247 110.566 247 165.156Z" fill="#979797"/>
<path d="M205.899 184.294C205.899 220.274 170.351 249.442 126.5 249.442C82.649 249.442 47.1008 220.274 47.1008 184.294C47.1008 148.314 82.649 93.8961 126.5 93.8961C170.351 93.8961 205.899 148.314 205.899 184.294Z" fill="#E1DFD9"/>
<path fill-rule="evenodd" clip-rule="evenodd" d="M31.7737 23.5436C26.5687 22.1489 21.8058 26.9118 23.2005 32.1168L29.2523 54.7027C30.647 59.9077 37.1533 61.6511 40.9636 57.8408L57.4976 41.3067C61.3079 37.4964 59.5646 30.9901 54.3596 29.5955L31.7737 23.5436ZM233.539 38.0016C235.216 32.8806 230.72 27.8645 225.447 28.9725L202.564 33.7806C197.29 34.8886 195.194 41.2898 198.79 45.3028L214.396 62.716C217.992 66.7289 224.584 65.3438 226.261 60.2229L233.539 38.0016Z" fill="#979797"/>
</svg>
