<svg width="80" height="80" viewBox="0 0 80 80" fill="none" xmlns="http://www.w3.org/2000/svg">
<path d="M9.36562 17.32C9.21749 13.0606 12.5356 9.13313 17.0212 9.13313H62.9837C67.4694 9.13313 70.7875 13.0606 70.6394 17.32C70.4969 21.4113 70.6819 26.7113 72.0156 31.0325C73.3537 35.3675 75.61 38.1069 79.3056 38.4594V42.4513C75.61 42.8038 73.3537 45.5431 72.0156 49.8781C70.6819 54.1994 70.4969 59.4994 70.6394 63.5906C70.7875 67.85 67.4694 71.7769 62.9837 71.7769H17.0212C12.5356 71.7769 9.21749 67.8494 9.36562 63.5906C9.50812 59.4994 9.32312 54.1994 7.98874 49.8781C6.65124 45.5438 4.38874 42.8038 0.693115 42.4513V38.4594C4.38874 38.1075 6.65124 35.3675 7.98874 31.0325C9.32312 26.7113 9.50749 21.4113 9.36562 17.32Z" fill="url(#paint0_linear_2_60)"/>
<g filter="url(#filter0_d_2_60)">
<path d="M41.9437 57.3351C49.2055 57.3351 53.5815 53.7795 53.5815 47.9149C53.5815 43.4818 50.4592 40.2724 45.8229 39.7643V39.5796C49.2292 39.0255 51.9021 35.8623 51.9021 32.3297C51.9021 27.2963 47.9282 24.0175 41.8727 24.0175H28.2478V57.3351H41.9437ZM33.5464 28.2429H40.5954C44.4274 28.2429 46.6035 29.9514 46.6035 33.0454C46.6035 36.3472 44.0726 38.1942 39.4837 38.1942H33.5464V28.2429ZM33.5464 53.1098V42.1425H40.548C45.5627 42.1425 48.1647 43.9895 48.1647 47.5915C48.1647 51.1933 45.6338 53.1098 40.8555 53.1098H33.5464Z" fill="url(#paint1_linear_2_60)"/>
<path d="M41.9437 57.3351C49.2055 57.3351 53.5815 53.7795 53.5815 47.9149C53.5815 43.4818 50.4592 40.2724 45.8229 39.7643V39.5796C49.2292 39.0255 51.9021 35.8623 51.9021 32.3297C51.9021 27.2963 47.9282 24.0175 41.8727 24.0175H28.2478V57.3351H41.9437ZM33.5464 28.2429H40.5954C44.4274 28.2429 46.6035 29.9514 46.6035 33.0454C46.6035 36.3472 44.0726 38.1942 39.4837 38.1942H33.5464V28.2429ZM33.5464 53.1098V42.1425H40.548C45.5627 42.1425 48.1647 43.9895 48.1647 47.5915C48.1647 51.1933 45.6338 53.1098 40.8555 53.1098H33.5464Z" stroke="white" stroke-width="0.24566"/>
</g>
<defs>
<filter id="filter0_d_2_60" x="24.1944" y="20.9468" width="33.4405" height="41.4244" filterUnits="userSpaceOnUse" color-interpolation-filters="sRGB">
<feFlood flood-opacity="0" result="BackgroundImageFix"/>
<feColorMatrix in="SourceAlpha" type="matrix" values="0 0 0 0 0 0 0 0 0 0 0 0 0 0 0 0 0 0 127 0" result="hardAlpha"/>
<feOffset dy="0.98264"/>
<feGaussianBlur stdDeviation="1.96528"/>
<feColorMatrix type="matrix" values="0 0 0 0 0 0 0 0 0 0 0 0 0 0 0 0 0 0 0.15 0"/>
<feBlend mode="normal" in2="BackgroundImageFix" result="effect1_dropShadow_2_60"/>
<feBlend mode="normal" in="SourceGraphic" in2="effect1_dropShadow_2_60" result="shape"/>
</filter>
<linearGradient id="paint0_linear_2_60" x1="12.3747" y1="10.791" x2="81.0676" y2="65.3202" gradientUnits="userSpaceOnUse">
<stop stop-color="#9013FE"/>
<stop offset="1" stop-color="#6610F2"/>
</linearGradient>
<linearGradient id="paint1_linear_2_60" x1="30.6448" y1="26.21" x2="45.9986" y2="52.1778" gradientUnits="userSpaceOnUse">
<stop stop-color="white"/>
<stop offset="1" stop-color="#F1E5FC"/>
</linearGradient>
</defs>
</svg>
