<svg width="80" height="80" viewBox="0 0 80 80" fill="none" xmlns="http://www.w3.org/2000/svg">
<path d="M30.6686 20.4125C21.6873 18.775 14.5936 20.4875 11.7623 25.4125C9.64983 29.0688 10.2561 33.9188 13.2248 39.1C13.2852 39.2051 13.3656 39.2972 13.4615 39.3712C13.5575 39.4452 13.667 39.4995 13.784 39.5311C13.9009 39.5628 14.0229 39.5711 14.1431 39.5555C14.2632 39.54 14.3791 39.501 14.4842 39.4406C14.5893 39.3803 14.6814 39.2999 14.7554 39.2039C14.8294 39.108 14.8837 38.9984 14.9153 38.8815C14.947 38.7645 14.9553 38.6425 14.9397 38.5224C14.9242 38.4022 14.8852 38.2863 14.8248 38.1813C12.1498 33.5125 11.6248 29.325 13.3561 26.3063C15.7061 22.2375 22.0373 20.6813 30.3373 22.2188C30.5777 22.2627 30.8256 22.2093 31.0267 22.0704C31.2277 21.9315 31.3653 21.7185 31.4092 21.4781C31.4531 21.2378 31.3998 20.9898 31.2609 20.7888C31.122 20.5878 30.9089 20.4502 30.6686 20.4063V20.4125ZM17.8936 45.3813C21.8982 49.673 26.535 53.3277 31.6436 56.2188C44.6686 63.7188 58.5186 65.75 65.3936 61.0875C65.595 60.9499 65.7335 60.738 65.7786 60.4983C65.8237 60.2586 65.7718 60.0108 65.6342 59.8094C65.4966 59.608 65.2847 59.4695 65.045 59.4244C64.8053 59.3792 64.5575 59.4312 64.3561 59.5688C58.1936 63.75 44.9998 61.825 32.5436 54.6188C27.6072 51.821 23.1265 48.2866 19.2561 44.1375C19.0903 43.9568 18.8596 43.8494 18.6146 43.8388C18.3696 43.8283 18.1305 43.9155 17.9498 44.0813C17.7692 44.247 17.6617 44.4778 17.6512 44.7227C17.6406 44.9677 17.7278 45.2068 17.8936 45.3875V45.3813Z" fill="#47848F"/>
<path d="M63.1625 44.2563C69.0437 37.3125 71.0937 30.325 68.2687 25.4375C66.1937 21.8375 61.8 19.9375 55.9625 19.8625C55.718 19.8625 55.4835 19.9596 55.3106 20.1325C55.1377 20.3054 55.0406 20.5399 55.0406 20.7844C55.0406 21.0289 55.1377 21.2634 55.3106 21.4362C55.4835 21.6091 55.718 21.7063 55.9625 21.7063C61.2125 21.775 64.9937 23.4125 66.7 26.3625C69.0437 30.425 67.2125 36.6563 61.7812 43.075C61.7033 43.1673 61.6442 43.2741 61.6075 43.3893C61.5708 43.5044 61.5572 43.6257 61.5673 43.7461C61.5775 43.8665 61.6113 43.9838 61.6667 44.0911C61.7222 44.1985 61.7983 44.2939 61.8906 44.3719C61.9829 44.4499 62.0897 44.5089 62.2049 44.5456C62.32 44.5823 62.4413 44.5959 62.5617 44.5858C62.6821 44.5756 62.7994 44.5419 62.9067 44.4864C63.0141 44.4309 63.1095 44.3548 63.1875 44.2625L63.1625 44.2563ZM48.0562 20.7188C42.2856 22.0283 36.7517 24.2208 31.65 27.2188C18.2062 35 9.43123 46.4313 10.625 54.7313C10.6426 54.8544 10.6843 54.9728 10.7478 55.0798C10.8112 55.1868 10.8951 55.2802 10.9946 55.3548C11.0941 55.4294 11.2074 55.4836 11.3279 55.5144C11.4484 55.5452 11.5737 55.552 11.6969 55.5344C11.82 55.5167 11.9384 55.475 12.0454 55.4116C12.1524 55.3482 12.2458 55.2643 12.3204 55.1648C12.395 55.0652 12.4492 54.952 12.48 54.8315C12.5109 54.711 12.5176 54.5856 12.5 54.4625C11.3937 47.0938 19.7062 36.25 32.5687 28.8188C37.5037 25.9081 42.8584 23.7768 48.4437 22.5C48.5619 22.4746 48.6739 22.4261 48.7734 22.3573C48.8729 22.2886 48.9578 22.201 49.0234 22.0994C49.089 21.9978 49.1339 21.8843 49.1556 21.7654C49.1773 21.6465 49.1754 21.5244 49.15 21.4063C49.1245 21.2881 49.0761 21.176 49.0073 21.0766C48.9386 20.9771 48.8509 20.8922 48.7494 20.8266C48.6478 20.761 48.5343 20.7161 48.4154 20.6944C48.2965 20.6726 48.1744 20.6746 48.0562 20.7V20.7188Z" fill="#47848F"/>
<path d="M26.2499 60.4875C29.3749 69.0688 34.3749 74.375 40.0312 74.375C44.1562 74.375 47.9687 71.5625 50.9437 66.6125C51.0746 66.4045 51.1175 66.1529 51.063 65.9132C51.0085 65.6736 50.8611 65.4653 50.653 65.3344C50.445 65.2034 50.1935 65.1605 49.9538 65.215C49.7141 65.2695 49.5059 65.417 49.3749 65.625C46.6999 70.075 43.4187 72.5 40.0374 72.5C35.3374 72.5 30.8562 67.7875 28.0124 59.85C27.9295 59.6204 27.7588 59.4332 27.5379 59.3294C27.317 59.2257 27.0639 59.214 26.8343 59.2969C26.6047 59.3798 26.4174 59.5504 26.3137 59.7714C26.21 59.9923 26.1983 60.2454 26.2812 60.475L26.2499 60.4875ZM54.3749 58.8063C56.0375 53.2728 56.8613 47.5214 56.8187 41.7437C56.8187 26.4875 51.4812 13.3437 43.8749 9.9625C43.7641 9.91325 43.6447 9.88631 43.5235 9.88322C43.4023 9.88013 43.2816 9.90094 43.1684 9.94446C43.0553 9.98799 42.9518 10.0534 42.8639 10.1369C42.776 10.2204 42.7054 10.3204 42.6562 10.4313C42.5567 10.655 42.5502 10.9091 42.6381 11.1377C42.726 11.3663 42.9011 11.5505 43.1249 11.65C49.9062 14.6625 54.9999 27.1375 54.9999 41.7437C55.0415 47.335 54.2451 52.901 52.6374 58.2563C52.6013 58.3716 52.5882 58.4929 52.599 58.6132C52.6098 58.7336 52.6441 58.8507 52.7001 58.9577C52.7561 59.0648 52.8327 59.1598 52.9254 59.2373C53.0181 59.3148 53.1252 59.3733 53.2405 59.4094C53.3558 59.4455 53.4771 59.4585 53.5975 59.4478C53.7179 59.437 53.8349 59.4026 53.942 59.3466C54.0491 59.2906 54.1441 59.2141 54.2216 59.1214C54.2991 59.0286 54.3575 58.9216 54.3937 58.8063H54.3749ZM71.6936 57.9063C71.6937 57.0348 71.4352 56.1829 70.9511 55.4583C70.4669 54.7337 69.7787 54.1689 68.9736 53.8354C68.1685 53.5019 67.2825 53.4147 66.4278 53.5847C65.5731 53.7547 64.7879 54.1743 64.1717 54.7906C63.5555 55.4068 63.1358 56.1919 62.9658 57.0466C62.7958 57.9014 62.8831 58.7873 63.2166 59.5924C63.5501 60.3976 64.1148 61.0858 64.8394 61.5699C65.564 62.0541 66.4159 62.3125 67.2874 62.3125C67.866 62.3125 68.439 62.1985 68.9736 61.9771C69.5082 61.7557 69.9939 61.4311 70.4031 61.0219C70.8122 60.6128 71.1368 60.127 71.3582 59.5924C71.5797 59.0579 71.6936 58.4849 71.6936 57.9063ZM69.8499 57.9063C69.8499 58.4131 69.6996 58.9085 69.418 59.3299C69.1365 59.7513 68.7363 60.0797 68.268 60.2737C67.7998 60.4676 67.2846 60.5184 66.7875 60.4195C66.2904 60.3206 65.8338 60.0766 65.4754 59.7182C65.1171 59.3598 64.873 58.9032 64.7741 58.4062C64.6753 57.9091 64.726 57.3939 64.92 56.9256C65.1139 56.4574 65.4424 56.0572 65.8638 55.7756C66.2852 55.494 66.7806 55.3438 67.2874 55.3438C67.967 55.3438 68.6188 55.6137 69.0994 56.0943C69.5799 56.5749 69.8499 57.2266 69.8499 57.9063ZM12.7124 62.3125C13.5839 62.3125 14.4358 62.0541 15.1604 61.5699C15.885 61.0858 16.4497 60.3976 16.7832 59.5924C17.1167 58.7873 17.204 57.9014 17.034 57.0466C16.864 56.1919 16.4443 55.4068 15.8281 54.7906C15.2119 54.1743 14.4267 53.7547 13.572 53.5847C12.7173 53.4147 11.8313 53.5019 11.0262 53.8354C10.2211 54.1689 9.5329 54.7337 9.04874 55.4583C8.56457 56.1829 8.30615 57.0348 8.30615 57.9063C8.30615 59.0749 8.77038 60.1956 9.59671 61.0219C10.423 61.8483 11.5438 62.3125 12.7124 62.3125ZM12.7124 60.4688C12.2056 60.4688 11.7102 60.3185 11.2888 60.0369C10.8674 59.7553 10.5389 59.3551 10.345 58.8869C10.151 58.4186 10.1003 57.9034 10.1991 57.4063C10.298 56.9093 10.5421 56.4527 10.9004 56.0943C11.2588 55.7359 11.7154 55.4919 12.2125 55.393C12.7096 55.2941 13.2248 55.3449 13.693 55.5388C14.1613 55.7328 14.5615 56.0612 14.843 56.4826C15.1246 56.904 15.2749 57.3994 15.2749 57.9063C15.2749 58.5859 15.0049 59.2377 14.5244 59.7182C14.0438 60.1988 13.392 60.4688 12.7124 60.4688Z" fill="#47848F"/>
<path d="M40.0313 14.4563C40.9027 14.4563 41.7546 14.1978 42.4792 13.7137C43.2038 13.2295 43.7686 12.5413 44.1021 11.7362C44.4356 10.9311 44.5229 10.0451 44.3528 9.19038C44.1828 8.33566 43.7632 7.55054 43.1469 6.93431C42.5307 6.31809 41.7456 5.89843 40.8909 5.72842C40.0361 5.5584 39.1502 5.64566 38.3451 5.97916C37.5399 6.31266 36.8518 6.87742 36.3676 7.60202C35.8834 8.32662 35.625 9.17853 35.625 10.05C35.625 11.2186 36.0892 12.3394 36.9156 13.1657C37.7419 13.992 38.8626 14.4563 40.0313 14.4563ZM40.0313 12.6125C39.5244 12.6125 39.029 12.4622 38.6076 12.1806C38.1862 11.8991 37.8578 11.4989 37.6638 11.0306C37.4699 10.5624 37.4191 10.0472 37.518 9.55008C37.6169 9.05301 37.8609 8.59641 38.2193 8.23804C38.5777 7.87967 39.0343 7.63561 39.5313 7.53674C40.0284 7.43786 40.5436 7.48861 41.0119 7.68256C41.4801 7.87651 41.8803 8.20495 42.1619 8.62635C42.4435 9.04775 42.5938 9.54319 42.5938 10.05C42.5938 10.7296 42.3238 11.3814 41.8432 11.862C41.3626 12.3425 40.7109 12.6125 40.0313 12.6125ZM40.7062 44.8562C40.0902 44.9941 39.4471 44.9459 38.8585 44.7178C38.2699 44.4898 37.7623 44.092 37.4 43.5751C37.0377 43.0582 36.837 42.4453 36.8234 41.8142C36.8099 41.183 36.984 40.5621 37.3238 40.0301C37.6635 39.4981 38.1536 39.0789 38.7319 38.8257C39.3102 38.5726 39.9506 38.4968 40.572 38.6081C41.1934 38.7193 41.7677 39.0126 42.2222 39.4506C42.6767 39.8887 42.9909 40.4519 43.125 41.0687C43.3038 41.8915 43.1498 42.7516 42.6966 43.4613C42.2435 44.1709 41.5279 44.6724 40.7062 44.8562Z" fill="#47848F"/>
</svg>
