<svg width="57" height="55" viewBox="0 0 57 55" fill="none" xmlns="http://www.w3.org/2000/svg">
<path d="M28.1982 0C12.6187 0 0 12.6258 0 28.1982C0 40.6595 8.07879 51.2268 19.2805 54.9513C20.6904 55.2168 21.2074 54.345 21.2074 53.5954C21.2074 52.9257 21.1839 51.1516 21.1722 48.8017C13.3284 50.503 11.6741 45.0185 11.6741 45.0185C10.391 41.7639 8.53701 40.8945 8.53701 40.8945C5.98272 39.1462 8.7344 39.1814 8.7344 39.1814C11.566 39.3788 13.0534 42.0858 13.0534 42.0858C15.5678 46.3978 19.6542 45.1524 21.2662 44.431C21.5199 42.6075 22.246 41.3644 23.052 40.6595C16.7897 39.9545 10.2078 37.5295 10.2078 26.7249C10.2078 23.6466 11.3004 21.1322 13.1098 19.1583C12.7926 18.4463 11.8409 15.5795 13.3566 11.6952C13.3566 11.6952 15.7182 10.9386 21.1111 14.5855C23.3669 13.9581 25.7638 13.6479 28.1606 13.6338C30.5575 13.6479 32.9543 13.9581 35.2102 14.5855C40.5678 10.9386 42.9294 11.6952 42.9294 11.6952C44.4451 15.5795 43.4934 18.4463 43.2114 19.1583C45.0091 21.1322 46.1017 23.6466 46.1017 26.7249C46.1017 37.5577 39.5104 39.9428 33.2363 40.636C34.2232 41.4819 35.1397 43.2114 35.1397 45.8527C35.1397 49.6265 35.1044 52.6578 35.1044 53.5743C35.1044 54.3145 35.5979 55.1957 37.0431 54.9137C48.3247 51.215 56.3964 40.6407 56.3964 28.1982C56.3964 12.6258 43.7707 0 28.1982 0Z" fill="#333333"/>
</svg>
