<svg width="61" height="55" viewBox="0 0 61 55" fill="none" xmlns="http://www.w3.org/2000/svg">
<path d="M51.9703 42.353C51.9698 44.8474 49.9476 46.8692 47.4533 46.8692V46.8692C44.9587 46.8692 42.9364 44.8469 42.9364 42.3522L42.9364 34.1069C42.9364 31.0635 42.8678 27.1471 38.2292 27.1471C33.5195 27.1471 32.8002 30.4585 32.8002 33.8823L32.8002 42.3526C32.8002 44.847 30.7781 46.8692 28.2837 46.8692V46.8692C25.7893 46.8692 23.7671 44.847 23.7671 42.3526L23.7671 24.9636C23.7671 22.5675 25.7096 20.625 28.1057 20.625L30.6557 20.625C31.6436 20.625 32.4444 21.4258 32.4444 22.4136L32.4444 24.1279C32.4444 24.169 32.4777 24.2023 32.5187 24.2023V24.2023C32.5451 24.2023 32.5692 24.1887 32.5828 24.1661C33.8082 22.1144 36.7478 19.9627 41.1267 19.9627C50.2793 19.9627 51.972 25.394 51.972 32.4638L51.9703 42.353ZM13.5649 17.034C12.8758 17.0343 12.1934 16.912 11.5567 16.6743C10.9201 16.4365 10.3417 16.0879 9.85465 15.6483C9.36761 15.2087 8.9815 14.6869 8.71841 14.1126C8.45532 13.5384 8.32041 12.923 8.32142 12.3017C8.32192 11.3662 8.63008 10.4518 9.20694 9.67421C9.7838 8.89661 10.6034 8.29072 11.5622 7.93313C12.521 7.57555 13.5758 7.48234 14.5934 7.66529C15.6109 7.84825 16.5454 8.29914 17.2787 8.96097C18.012 9.62279 18.5112 10.4658 18.7131 11.3834C18.915 12.301 18.8106 13.252 18.4131 14.1162C18.0156 14.9803 17.3428 15.7187 16.4798 16.2381C15.6168 16.7574 14.6024 17.0344 13.5649 17.034ZM18.0941 42.3399C18.0941 44.8413 16.0663 46.8692 13.5649 46.8692V46.8692C11.0634 46.8692 9.03563 44.8414 9.03563 42.3399L9.03563 25.1543C9.03563 22.6528 11.0634 20.625 13.5649 20.625V20.625C16.0663 20.625 18.0941 22.6528 18.0941 25.1543L18.0941 42.3399ZM56.4885 0L4.50129 0C2.013 0 0 1.77375 0 3.96229L0 51.0377C0 53.2285 2.013 55 4.50129 55L56.4809 55C58.9667 55 61 53.2285 61 51.0377L61 3.96229C61 1.77375 58.9667 0 56.4809 0L56.4885 0Z" fill="#333333"/>
</svg>
