<svg width="80" height="80" viewBox="0 0 80 80" fill="none" xmlns="http://www.w3.org/2000/svg">
<path fill-rule="evenodd" clip-rule="evenodd" d="M78.885 0.454367C56.2456 0.447492 33.7075 0.448117 11.0675 0.448117C7.82937 0.448117 4.53563 0.445617 1.2975 0.454992C1.0925 0.455617 0.625 0.550617 0.625 0.602492V79.375H79.375V0.602492C79.375 0.550617 79.1162 0.454367 78.885 0.454367ZM70.925 71.6662C50.5244 71.6425 30.1306 71.6475 9.73 71.6475C8.745 71.6475 8.74937 71.6456 8.74937 70.6306V9.50749C8.75 8.50312 8.74 8.74999 9.73562 8.74999H70.8594C71.8831 8.74999 71.875 8.50249 71.875 9.55687V40.08C71.875 50.28 71.8706 60.48 71.8975 70.6794C71.9 71.4562 71.7169 71.6669 70.925 71.6662ZM35.5125 24.7775C31.345 23.8006 27.15 24.2825 22.9594 24.7106C22.07 24.8019 21.9 25.1825 21.9025 25.9719C21.9294 35.4762 21.875 44.9806 21.875 54.485V55H27.5V43.8369C30.625 44.0712 33.485 44.0156 36.2806 43.0181C40.7612 41.4194 43.0006 37.9487 42.7588 32.8812C42.5631 28.7887 39.9925 25.8275 35.5125 24.7775ZM34.2919 38.7425C32.2956 39.7156 30.1731 39.6925 28.0387 39.4037C27.8725 39.3812 27.6169 39.0844 27.6156 38.9137C27.5906 35.5819 27.5969 32.2506 27.5969 28.8275C29.5537 28.5225 31.4094 28.3737 33.2606 28.8387C35.5562 29.4156 36.8881 30.9131 37.1362 33.1619C37.4087 35.6331 36.3569 37.7362 34.2919 38.7425ZM55.105 43.1837C54.1869 42.6806 53.18 42.3419 52.2262 41.9006C51.345 41.4925 50.4556 41.0906 49.6175 40.6031C49.0331 40.2637 48.7675 39.6706 48.7675 38.9712C48.7675 37.7887 49.5762 36.8356 50.9575 36.7225C51.9881 36.6381 53.0581 36.7444 54.0788 36.935C54.9388 37.095 55.7544 37.4969 56.63 37.8069L57.7344 33.8887C55.6437 32.8737 53.5162 32.4919 51.3062 32.57C49.4275 32.6356 47.6725 33.1144 46.0863 34.1944C43.1219 36.2125 41.6756 41.5737 46.1181 44.4544C47.2463 45.1862 48.5513 45.645 49.775 46.23C50.5363 46.5944 51.3306 46.9044 52.0506 47.3375C52.9581 47.8837 53.2669 48.7731 53.1094 49.8C52.955 50.8094 52.2781 51.4487 51.3369 51.5962C50.2869 51.7612 49.1706 51.8681 48.1381 51.6862C46.6763 51.4294 45.2637 50.8856 43.7794 50.4494C43.5131 51.4431 43.26 52.5425 42.9144 53.6119C42.725 54.1981 42.8363 54.4875 43.4113 54.7169C46.9219 56.1112 50.495 56.3981 54.0875 55.165C56.7725 54.2431 58.4094 52.3375 58.6225 49.4344C58.83 46.605 57.555 44.5275 55.105 43.1837Z" fill="#80B5E2"/>
</svg>
