<svg width="80" height="80" viewBox="0 0 80 80" fill="none" xmlns="http://www.w3.org/2000/svg">
<path fill-rule="evenodd" clip-rule="evenodd" d="M0.761963 35.0975C0.761963 35.5369 0.891338 35.8269 0.963838 36.1087C1.43634 37.9419 2.45196 39.515 3.65696 40.95C5.37321 42.995 7.47509 44.6413 9.62821 46.1894C11.4957 47.5319 13.4013 48.8444 15.2763 50.1769C15.5982 50.4056 15.9026 50.6687 16.252 50.9494C15.9513 51.1119 15.7013 51.255 15.4413 51.3869C12.967 52.6419 10.5863 54.0488 8.39196 55.7531C7.06946 56.7806 5.79071 57.8725 4.88759 59.2994C3.43446 61.5944 2.92009 64.0394 4.00321 66.65C4.31946 67.4125 4.80196 68.0713 5.48259 68.5581C5.70321 68.7156 5.95071 68.8719 6.20884 68.9331C6.87009 69.0887 7.54384 69.1906 8.21321 69.3138L10.1088 69.3125C12.2051 69.1256 14.1132 68.4075 15.8376 67.2175C18.5326 65.3575 20.3482 62.8638 21.1288 59.6631C21.6963 57.3369 21.7195 55.0081 21.0507 52.6925C20.9867 52.478 20.9129 52.2665 20.8295 52.0588C20.7482 51.8506 20.6526 51.6481 20.5401 51.3887L24.8376 48.9175L24.902 48.9725C24.8238 49.2281 24.7407 49.4831 24.6701 49.7412C24.1595 51.6063 23.8201 53.5038 23.942 55.4394C24.072 57.5019 24.6476 59.4325 25.8551 61.1556C26.8313 62.5494 29.1576 62.6013 30.1951 61.2025C30.5632 60.7056 30.9201 60.1863 31.1882 59.6319C31.8888 58.185 32.5376 56.7125 33.207 55.25L33.3238 54.9825C33.2757 55.675 33.2195 56.2831 33.1938 56.8919C33.1538 57.8425 33.2095 58.7875 33.5345 59.6919C33.8126 60.4656 34.2857 61.0438 35.172 61.1456C35.7782 61.215 36.2613 60.9375 36.707 60.5856C37.3973 60.0401 37.9695 59.3598 38.3888 58.5863C39.577 56.4044 40.797 54.2356 41.8738 51.9987C43.0388 49.5794 44.0576 47.0894 45.1395 44.6287L45.3182 44.1925C45.5738 45.1969 45.752 46.1806 46.0801 47.1119C46.4613 48.1925 46.9332 49.2475 47.447 50.2731C47.6901 50.7575 47.662 51.0719 47.3251 51.4781C45.9151 53.1781 44.5295 54.8988 43.1426 56.6175C42.8357 56.9969 42.5301 57.3831 42.2745 57.7975C42.1194 58.0592 42.0174 58.3489 41.9745 58.65C41.9314 58.9272 41.9974 59.2104 42.1586 59.44C42.3197 59.6697 42.5635 59.828 42.8388 59.8819C43.3945 60.0015 43.9643 60.0422 44.5313 60.0025C46.467 59.86 48.2245 59.1806 49.7782 58.0294C51.7913 56.5381 52.4376 54.5031 51.9501 52.0913C51.8182 51.4369 51.5851 50.8006 51.3582 50.17C51.2563 49.8856 51.2495 49.6862 51.4351 49.4212C53.0445 47.1231 54.4195 44.685 55.6982 42.1906C55.7488 42.0925 55.8007 41.9944 55.8895 41.8894C56.3038 44.0456 56.9276 46.1238 58.0451 48.0094C57.4751 48.5588 56.9107 49.0569 56.4001 49.6056C55.2757 50.8144 54.3007 52.1269 53.792 53.7275C53.5732 54.4175 53.4051 55.1188 53.5026 55.8556C53.6538 57 54.5913 57.7438 55.717 57.4831C58.1257 56.9256 60.2051 55.7906 61.7245 53.78C62.747 52.4262 62.8401 50.9162 62.412 49.3344C62.2945 48.9044 62.1551 48.4813 62.0051 47.9881C62.5995 47.8037 63.1788 47.5825 63.7782 47.4456C66.8901 46.7356 69.9682 46.8594 72.967 47.9831C74.7176 48.6394 76.132 49.7375 76.9707 51.465C77.9951 53.5769 77.4288 55.5806 75.4382 56.9156C75.2526 57.04 75.0401 57.1381 74.8863 57.2937C74.8371 57.3508 74.8003 57.4175 74.7782 57.4896C74.7561 57.5617 74.7493 57.6376 74.7582 57.7125C74.7713 57.7894 74.9745 57.8856 75.0913 57.8844C75.7457 57.8794 76.2763 57.5363 76.7857 57.1838C78.062 56.3006 78.9932 55.1125 79.1938 53.5481L79.2332 53.4306L79.1851 52.4119C79.1657 52.3531 79.1995 52.295 79.1951 52.2506C78.9238 49.9725 77.707 48.2056 75.937 46.8206C73.887 45.2175 71.4663 44.5575 68.9063 44.4531C66.8301 44.3638 64.7565 44.6829 62.8032 45.3925C62.2426 45.5956 61.687 45.8362 61.1232 46.0631C61.0476 45.9262 60.9663 45.795 60.8995 45.6594C60.3207 44.4744 59.6195 43.3419 59.4645 41.9831C59.3545 41.0181 59.2195 40.0544 59.4488 39.1C59.6695 38.1819 59.957 37.2794 60.2276 36.3738C60.367 35.9075 60.2688 35.6463 59.8238 35.4363C59.6688 35.3589 59.5033 35.3046 59.3326 35.275C58.2388 35.1162 57.1601 35.2069 56.1007 35.515C55.7257 35.6244 55.4532 35.8344 55.3701 36.2494C55.3226 36.4875 55.2257 36.7156 55.1582 36.9506C54.8813 37.9275 54.6851 38.9231 54.2376 39.8537C53.1163 42.1881 51.8363 44.4344 50.5263 46.6644C50.3845 46.905 50.2351 47.1412 50.0563 47.4331C49.5963 46.4706 49.1057 45.6069 48.957 44.5944C48.7888 43.4494 48.6563 42.3063 48.9413 41.17C49.1532 40.3225 49.4301 39.4906 49.6851 38.6544C49.8057 38.2569 49.7501 38.0481 49.3901 37.8387C49.2082 37.7331 49.0026 37.6394 48.7976 37.6087C47.6761 37.4379 46.5302 37.5317 45.4513 37.8825C45.112 37.9925 44.9338 38.2119 44.8301 38.5619C44.5251 39.5944 44.2651 40.6519 43.837 41.6337C42.1032 45.6087 40.3195 49.5631 38.5376 53.5169C38.1657 54.3425 37.7301 55.1394 37.3107 55.9431C37.2045 56.1469 37.0495 56.3263 36.917 56.5175C36.8107 56.3919 36.7695 56.3056 36.7701 56.2194C36.7732 55.7112 36.7126 55.1881 36.8095 54.6969C37.1069 53.2111 37.4358 51.7318 37.7957 50.26C38.0895 49.0438 38.4313 47.8387 38.757 46.6306C38.8663 46.2262 38.8682 45.8481 38.5776 45.5081C38.0895 44.9388 37.0695 44.8138 36.4645 45.2525L36.197 45.4038L36.2488 44.9725C36.3763 44.0481 36.402 43.1269 36.1482 42.2162C35.832 41.0812 35.022 40.4281 33.8445 40.4644C33.2957 40.4812 32.7195 40.575 32.2113 40.775C30.0745 41.6125 28.4313 43.0956 27.0326 44.88C26.9029 45.0457 26.7422 45.1845 26.5595 45.2887C24.7513 46.2912 22.9376 47.2812 21.1245 48.275L19.1063 49.3806C18.5651 48.8644 18.0732 48.3288 17.5151 47.8744C15.8107 46.4844 14.0788 45.1288 12.3626 43.7544C10.8413 42.5363 9.36759 41.2675 8.24009 39.6544C7.40134 38.4544 6.86071 37.1412 6.80884 35.6575C6.74321 33.7669 7.27946 32.0394 8.24196 30.4312C9.47321 28.3737 11.1526 26.7225 12.9988 25.2269C14.952 23.6456 17.0645 22.3031 19.2538 21.0775C22.317 19.3631 25.4676 17.8456 28.8457 16.8438C32.3095 15.8163 35.8238 15.2281 39.4488 15.6381C40.8738 15.7994 42.2576 16.1256 43.5282 16.8225C44.5013 17.3556 45.2995 18.0538 45.6707 19.145C46.037 20.2188 46.0257 21.3069 45.772 22.3975C45.2563 24.6062 44.047 26.4269 42.5251 28.0538C40.0288 30.7206 36.9838 32.5363 33.5557 33.7356C31.5846 34.4261 29.5339 34.8636 27.4526 35.0375C25.747 35.1806 24.077 35.0294 22.462 34.4362C21.3926 34.0431 20.4613 33.4419 19.7126 32.5694C19.5788 32.4131 19.4076 32.2438 19.1582 32.39C18.9138 32.5338 18.8707 32.7663 18.9526 33.0019C19.0895 33.3931 19.2157 33.8006 19.4288 34.1506C19.9645 35.0287 20.7457 35.6656 21.6057 36.2119C23.2576 37.2625 25.1038 37.6156 27.0182 37.6975C29.9232 37.8231 32.7576 37.3894 35.552 36.61C39.5413 35.4975 43.0101 33.5325 45.792 30.4325C48.1082 27.8513 49.7626 24.9381 50.117 21.4206C50.2901 19.7037 50.1057 18.0219 49.302 16.4556C48.4301 14.7588 47.0438 13.4969 45.3863 12.6275C42.9726 11.3619 40.3676 10.625 37.6788 10.625H34.9851C31.7288 10.625 28.5807 11.5581 25.5207 12.6713C23.2045 13.5144 20.9332 14.5094 18.7282 15.6106C13.9263 18.01 9.45446 20.9031 5.78134 24.8813C3.95134 26.8631 2.40196 29.05 1.51071 31.625C1.24172 32.3938 1.00999 33.1751 0.816338 33.9663M18.2157 56.4744C18.0076 59.2612 16.7445 61.5206 14.6801 63.3506C13.5188 64.3794 12.187 65.1119 10.6357 65.3694C10.0732 65.4625 9.49759 65.485 8.95196 65.2519C8.17384 64.9194 7.99946 64.2287 7.98446 63.4931C7.96134 62.3206 8.37196 61.2606 8.93509 60.2519C9.67009 58.9369 10.7476 57.9344 11.8982 56.9981C13.7107 55.5225 15.677 54.2738 17.6907 53.095L17.8426 53.0325C18.1538 54.1825 18.302 55.3181 18.2157 56.4744ZM33.9395 44.3625C33.7926 45.2525 33.6088 46.1431 33.3488 47.0056C32.4501 49.9912 31.2957 52.8844 30.0476 55.7388C29.817 56.2669 29.4813 56.7487 29.1895 57.2494C29.1398 57.3263 29.0804 57.3965 29.0126 57.4581C28.6513 57.815 28.3088 57.7962 28.1263 57.3294C27.9138 56.7869 27.7832 56.2062 27.6707 55.6319C27.5951 55.2463 27.6132 54.8412 27.5895 54.4463C27.6138 51.6375 28.4707 49.085 29.9245 46.7088C30.5238 45.7288 31.1763 44.795 32.1732 44.175C32.4833 43.9822 32.8189 43.8337 33.1701 43.7337C33.7013 43.5844 34.0276 43.83 33.9395 44.3625ZM44.667 58.03L48.5226 53.5281C48.6832 55.2 45.8413 58.5375 44.667 58.03ZM56.9813 55.0006C56.7088 55.1569 56.412 55.2694 56.1326 55.4137C55.877 55.5463 55.7926 55.4125 55.7851 55.1925C55.7813 55.0402 55.8009 54.8882 55.8432 54.7419C56.3638 52.9056 57.322 51.3381 58.7476 50.0631L58.8476 50.0119C59.5257 51.9087 58.742 53.9919 56.9813 55.0006Z" fill="#CB6699"/>
</svg>
