<svg width="80" height="80" viewBox="0 0 80 80" fill="none" xmlns="http://www.w3.org/2000/svg">
<path d="M5.4751 0.625L11.7595 71.1769L39.9582 79.0394L68.2357 71.1481L74.5251 0.625H5.4751ZM61.4695 16.7887L59.3776 40.2919L59.3839 40.4187L59.3751 40.7106V40.7081L57.8889 57.1419L57.7251 58.6019L40.0001 63.5044L39.9864 63.5169L22.292 58.5869L21.0938 45H29.7707L30.3864 51.9088L40.0026 54.515L40.0001 54.52V54.5188L49.652 51.8756L50.672 40.625H30.4951L30.322 38.7231L29.9276 34.2675L29.7207 31.875H51.4389L52.2289 23.125H19.1501L18.977 21.2244L18.5832 16.7675L18.3757 14.375H61.6763L61.4695 16.7887Z" fill="#1572B6"/>
</svg>
