<svg width="79" height="79" viewBox="0 0 79 79" fill="none" xmlns="http://www.w3.org/2000/svg">
<path d="M76.9862 36.0302L42.9693 2.0145C41.0116 0.0555498 37.8343 0.0555498 35.8735 2.0145L28.8104 9.07883L37.7707 18.0392C39.8537 17.3362 42.241 17.8077 43.9006 19.4673C45.5689 21.1374 46.0367 23.5451 45.3164 25.6349L53.9521 34.2712C56.0413 33.5509 58.4527 34.0163 60.1203 35.6876C62.4533 38.0188 62.4533 41.7978 60.1203 44.1301C59.5659 44.6848 58.9076 45.1248 58.1831 45.425C57.4586 45.7252 56.6821 45.8798 55.8978 45.8798C55.1136 45.8798 54.337 45.7252 53.6125 45.425C52.888 45.1248 52.2297 44.6848 51.6753 44.1301C50.8424 43.2967 50.2746 42.2354 50.0434 41.08C49.8122 39.9245 49.928 38.7265 50.3761 37.6367L42.3231 29.5837L42.3218 50.7785C42.9061 51.0662 43.4396 51.4473 43.9012 51.9067C46.233 54.2378 46.233 58.0156 43.9012 60.3517C41.5689 62.6828 37.7886 62.6828 35.4587 60.3517C33.127 58.0162 33.127 54.2384 35.4587 51.9067C36.0174 51.3472 36.6818 50.9045 37.4134 50.6044V29.2133C36.6812 28.9141 36.0166 28.4711 35.4587 27.9105C33.6923 26.1453 33.2671 23.5531 34.1731 21.3831L25.3393 12.5493L2.01457 35.8728C1.07355 36.8141 0.544922 38.0906 0.544922 39.4216C0.544922 40.7526 1.07355 42.0291 2.01457 42.9705L36.0321 76.9861C37.991 78.9451 41.1671 78.9451 43.1291 76.9861L76.9868 43.1284C77.9276 42.1869 78.4561 40.9102 78.4559 39.5792C78.4558 38.2481 77.9272 36.9716 76.9862 36.0302Z" fill="#F34F29"/>
</svg>
