<svg width="67" height="55" viewBox="0 0 67 55" fill="none" xmlns="http://www.w3.org/2000/svg">
<path d="M66.1028 4.58378L66.1028 50.4167C66.1028 53.0139 64.3125 55 61.9714 55L57.8399 55L57.8399 13.4051L33.0514 33.153L8.26285 13.4051L8.26285 55L4.13142 55C1.78753 55 0 53.0139 0 50.4167L0 4.58378C0 3.28518 0.446194 2.13936 1.1871 1.32047C1.57375 0.8938 2.03343 0.557219 2.53907 0.330532C3.04471 0.103844 3.58611 -0.00837142 4.13142 0.000486352L5.50857 0.000486352L33.0514 22.1531L60.5942 0.000486352L61.9714 0.000486352C63.1419 0.000486352 64.1748 0.495482 64.9157 1.32047C65.6594 2.13936 66.1028 3.28518 66.1028 4.58378Z" fill="#333333"/>
</svg>
